<?xml version="1.0" encoding="iso-8859-1"?>
<!-- Generator: Adobe Illustrator 21.0.2, SVG Export Plug-In . SVG Version: 6.00 Build 0)  -->
<svg version="1.1" id="Calque_1" xmlns="http://www.w3.org/2000/svg" xmlns:xlink="http://www.w3.org/1999/xlink" x="0px" y="0px"
	 viewBox="0 0 36 36" style="enable-background:new 0 0 36 36;" xml:space="preserve">
<g>
	<g>
		<g id="drive-pdf_8_">
			<path style="fill:#333333;" d="M16.6,11.2L16.6,11.2C16.8,11.2,16.8,11.2,16.6,11.2C16.8,10.4,17,10,17,9.4V9c0.2-1,0.2-1.8,0-2
				c0,0,0,0,0-0.2l-0.2-0.2l0,0l0,0c0,0,0,0.2-0.2,0.2C16.2,8,16.2,9.4,16.6,11.2L16.6,11.2z M10.6,25c-0.4,0.2-0.8,0.4-1,0.6
				c-1.4,1.2-2.4,2.6-2.6,3.2l0,0l0,0l0,0C8.2,28.6,9.4,27.4,10.6,25C10.8,25,10.8,25,10.6,25C10.8,25,10.6,25,10.6,25z M29,22
				c-0.2-0.2-1-0.8-3.8-0.8c-0.2,0-0.2,0-0.4,0l0,0c0,0,0,0,0,0.2c1.4,0.6,2.8,1,3.8,1c0.2,0,0.2,0,0.4,0l0,0h0.2c0,0,0,0,0-0.2l0,0
				C29.2,22.2,29,22.2,29,22z M32,0H4C1.8,0,0,1.8,0,4v28c0,2.2,1.8,4,4,4h28c2.2,0,4-1.8,4-4V4C36,1.8,34.2,0,32,0z M29.8,23.6
				c-0.4,0.2-1,0.4-1.8,0.4c-1.6,0-4-0.4-6-1.4c-3.4,0.4-6,0.8-8,1.6c-0.2,0-0.2,0-0.4,0.2c-2.4,4.2-4.4,6.2-6,6.2
				c-0.4,0-0.6,0-0.8-0.2l-1-0.6v-0.2c-0.2-0.4-0.2-0.6-0.2-1c0.2-1,1.4-2.8,3.8-4.2c0.4-0.2,1-0.6,1.8-1c0.6-1,1.2-2.2,2-3.6
				c1-2,1.6-4,2.2-5.8l0,0c-0.8-2.4-1.2-3.8-0.4-6.6c0.2-0.8,0.8-1.6,1.6-1.6H17c0.4,0,0.8,0.2,1.2,0.4c1.4,1.4,0.8,4.6,0,7.2
				c0,0.2,0,0.2,0,0.2c0.8,2.2,2,4,3.2,5.2c0.6,0.4,1,0.8,1.8,1.2c1,0,1.8-0.2,2.6-0.2c2.4,0,4,0.4,4.6,1.4c0.2,0.4,0.2,0.8,0.2,1.2
				C30.4,22.6,30.2,23.2,29.8,23.6z M16.8,15.8c-0.4,1.4-1.2,3-2,4.8c-0.4,0.8-0.8,1.4-1.2,2.2h0.2H14l0,0c2.6-1,5-1.6,6.6-1.8
				c-0.4-0.2-0.6-0.4-0.8-0.6C18.8,19.2,17.6,17.6,16.8,15.8z"/>
		</g>
	</g>
</g>
<g>
</g>
<g>
</g>
<g>
</g>
<g>
</g>
<g>
</g>
<g>
</g>
<g>
</g>
<g>
</g>
<g>
</g>
<g>
</g>
<g>
</g>
<g>
</g>
<g>
</g>
<g>
</g>
<g>
</g>
</svg>
